<svg width="56" height="56" viewBox="0 0 56 56" fill="none" xmlns="http://www.w3.org/2000/svg">
<path d="M56 43.3912C53.963 43.9092 52.703 43.414 51.5725 41.7165L43.533 30.5935L42.371 29.0535L32.9823 41.7532C31.9095 43.281 30.7843 43.946 28.7823 43.4052L40.8047 27.2667L29.6117 12.6892C31.5367 12.3147 32.8667 12.5055 34.048 14.2292L42.3867 25.4905L50.7868 14.2905C51.863 12.7627 53.0197 12.1817 54.9517 12.7452L50.6117 18.4992L44.7318 26.1555C44.0317 27.0305 44.128 27.629 44.772 28.4742L56 43.3912ZM0.014 26.9972L0.9975 22.1602C3.675 12.5877 14.6475 8.60998 22.2145 14.525C26.6368 18.004 27.7358 22.925 27.517 28.4375H2.59C2.2155 38.36 9.35725 44.3485 18.4625 41.293C21.6562 40.2202 23.5375 37.7195 24.479 34.5905C24.9567 33.0225 25.7478 32.7775 27.2213 33.2255C26.4688 37.1385 24.7712 40.4075 21.1838 42.4532C15.8235 45.5157 8.1725 44.5252 4.1475 40.2692C1.75 37.8 0.7595 34.671 0.315 31.325C0.245 30.772 0.105 30.2452 0 29.715C0.00933333 28.8097 0.014 27.9043 0.014 26.999V26.9972ZM2.6355 26.3322H25.1615C25.0145 19.1572 20.5467 14.0612 14.441 14.0175C7.7385 13.965 2.926 18.9402 2.6355 26.3322Z" fill="black"/>
</svg>
