<svg width="56" height="56" viewBox="0 0 56 56" fill="none" xmlns="http://www.w3.org/2000/svg">
<g clip-path="url(#clip0_0_13)">
<path d="M26.5 28C26.5 25.5246 27.975 23.1506 30.6005 21.4003C33.226 19.65 36.787 18.6666 40.5 18.6666C44.2131 18.6666 47.774 19.65 50.3995 21.4003C53.025 23.1506 54.5 25.5246 54.5 28C54.5 30.4753 53.025 32.8493 50.3995 34.5996C47.774 36.35 44.2131 37.3333 40.5 37.3333C36.787 37.3333 33.226 36.35 30.6005 34.5996C27.975 32.8493 26.5 30.4753 26.5 28Z" fill="white"/>
<path d="M0.5 46.6666C0.5 44.4043 1.84841 42.1693 4.37785 40.483C6.90757 38.7965 10.3679 37.8333 14 37.8333H27.5V46.6666C27.5 48.929 26.1516 51.164 23.6221 52.8503C21.0924 54.5368 17.6321 55.5 14 55.5C10.3679 55.5 6.90757 54.5368 4.37785 52.8503C1.84841 51.164 0.5 48.929 0.5 46.6666Z" fill="white" stroke="black"/>
<path d="M39 18.1667H25.5V0.5H39C42.6322 0.5 46.0925 1.46322 48.6222 3.1497C51.1516 4.83599 52.5 7.07099 52.5 9.33333C52.5 11.5957 51.1516 13.8307 48.6222 15.517C46.0925 17.2034 42.6322 18.1667 39 18.1667Z" stroke="black"/>
<path d="M0 9.33333C0 11.8087 1.475 14.1827 4.1005 15.933C6.72601 17.6833 10.287 18.6667 14 18.6667H28V0H14C10.287 0 6.72601 0.98333 4.1005 2.73367C1.475 4.48401 0 6.85798 0 9.33333Z" fill="black"/>
<path d="M4.37786 34.1837C1.84841 32.4974 0.5 30.2624 0.5 28C0.5 25.7377 1.84841 23.5027 4.37785 21.8164C6.90757 20.1299 10.3679 19.1667 14 19.1667H27.5V36.8334H14C10.3679 36.8334 6.90757 35.8701 4.37786 34.1837Z" stroke="black"/>
</g>
<defs>
<clipPath id="clip0_0_13">
<rect width="56" height="56" fill="white"/>
</clipPath>
</defs>
</svg>
