<svg width="56" height="56" viewBox="0 0 56 56" fill="none" xmlns="http://www.w3.org/2000/svg">
<g clip-path="url(#clip0_0_12)">
<path d="M28.0989 56C27.2458 56 26.4496 55.7959 25.7102 55.4387L18.1461 51.4077C17.0087 50.8465 17.5774 50.6424 17.9187 50.5403C19.4543 50.0811 19.7386 49.979 21.331 49.1626C21.5016 49.0606 21.7291 49.1116 21.8997 49.2137L27.7008 52.3262C27.9283 52.4283 28.2127 52.4283 28.3833 52.3262L51.0756 40.5393C51.303 40.4373 51.4168 40.2332 51.4168 39.9781V16.4553C51.4168 16.2002 51.303 15.9961 51.0756 15.894L28.3833 4.1582C28.1558 4.05616 27.8714 4.05616 27.7008 4.1582L5.00851 15.894C4.78102 15.9961 4.66727 16.2512 4.66727 16.4553V39.9781C4.66727 40.1821 4.78102 40.4373 5.00851 40.5393L11.2077 43.7539C14.5632 45.2847 16.6674 43.4988 16.6674 41.7129V18.4963C16.6674 18.1902 16.9518 17.8841 17.3499 17.8841H20.2505C20.5917 17.8841 20.9329 18.1392 20.9329 18.4963V41.7129C20.9329 45.7439 18.4873 48.0911 14.2219 48.0911C12.9138 48.0911 11.8902 48.0911 8.98959 46.8154L3.01796 43.7539C1.53927 42.9885 0.629303 41.5598 0.629303 40.0291V16.5063C0.629303 14.9756 1.53927 13.5469 3.01796 12.7815L25.7102 0.994628C27.1321 0.280274 29.0657 0.280274 30.4876 0.994628L53.1798 12.7815C54.6585 13.5469 55.5685 14.9756 55.5685 16.5063V40.0291C55.5685 41.5598 54.6585 42.9885 53.1798 43.7539L30.4876 55.5408C29.8051 55.7959 28.952 56 28.0989 56Z" fill="black"/>
<path d="M35.1511 39.8249C25.1983 39.8249 23.1509 35.7429 23.1509 32.2732C23.1509 31.9671 23.4353 31.6609 23.8334 31.6609H26.7908C27.132 31.6609 27.4164 31.865 27.4164 32.1712C27.8713 34.8755 29.1795 36.2022 35.208 36.2022C39.9853 36.2022 42.0327 35.2327 42.0327 32.9365C42.0327 31.6099 41.464 30.6404 34.0136 29.977C27.8145 29.4157 23.9472 28.1912 23.9472 23.7519C23.9472 19.6189 27.8145 17.1697 34.298 17.1697C41.5777 17.1697 45.1607 19.4148 45.6157 24.3132C45.6157 24.4663 45.5588 24.6194 45.4451 24.7725C45.3314 24.8745 45.1607 24.9766 44.9901 24.9766H41.9759C41.6914 24.9766 41.4071 24.7725 41.3502 24.5173C40.6677 21.7109 38.9047 20.7925 34.2411 20.7925C29.0088 20.7925 28.3832 22.4253 28.3832 23.6499C28.3832 25.1296 29.1226 25.5889 36.1748 26.4053C43.1702 27.2217 46.4688 28.3953 46.4688 32.7835C46.4688 37.2737 42.3171 39.8249 35.1511 39.8249Z" fill="black"/>
</g>
<defs>
<clipPath id="clip0_0_12">
<rect width="56" height="56" fill="white"/>
</clipPath>
</defs>
</svg>
