<svg width="36" height="25" viewBox="0 0 36 25" fill="none" xmlns="http://www.w3.org/2000/svg">
<path d="M22.1953 17.1047C23.2765 18.8609 24.4515 20.5437 26.9406 20.5437C29.0312 20.5437 30.1281 19.5047 30.1281 18.0672C30.1281 16.3469 28.9937 15.7359 26.6937 14.7344L25.4328 14.1969C21.7937 12.6531 19.3734 10.7187 19.3734 6.63281C19.3734 2.86719 22.2562 0.00156164 26.7609 0.00156164C29.9687 0.00156164 32.2734 1.1125 33.9359 4.02187L30.0078 6.53281C29.1437 4.98906 28.2093 4.38125 26.7609 4.38125C25.2828 4.38125 24.3469 5.31406 24.3469 6.53281C24.3469 8.03905 25.2844 8.64843 27.4484 9.58124L28.7093 10.1187C32.9984 11.9453 35.4171 13.8109 35.4171 18.0047C35.4171 22.5234 31.8484 25 27.0578 25C22.3719 25 19.7109 22.6484 18.2297 19.7375L22.1953 17.1047ZM4.09218 17.2328C4.88281 18.6484 6.08437 19.7375 7.81249 19.7375C9.46561 19.7375 10.4172 19.0844 10.4172 16.5453V0H15.625V17.3453C15.625 22.6062 12.5734 25 8.11718 25C4.09062 25 1.18437 22.2719 0 19.7375L4.09218 17.2328Z" fill="white"/>
</svg>
