<?xml version="1.0" standalone="no"?>
<!DOCTYPE svg PUBLIC "-//W3C//DTD SVG 20010904//EN"
 "http://www.w3.org/TR/2001/REC-SVG-20010904/DTD/svg10.dtd">
<svg version="1.0" xmlns="http://www.w3.org/2000/svg"
 width="640.000000pt" height="640.000000pt" viewBox="0 0 640.000000 640.000000"
 preserveAspectRatio="xMidYMid meet">

<g transform="translate(0.000000,640.000000) scale(0.100000,-0.100000)"
fill="#000000" stroke="none">
<path d="M0 3200 l0 -3200 3200 0 3200 0 0 3200 0 3200 -3200 0 -3200 0 0
-3200z m3039 730 c172 -170 318 -310 324 -310 7 0 152 140 322 310 170 171
313 310 317 310 4 0 27 -21 52 -47 l45 -48 -316 -317 -317 -317 20 -22 c10
-12 154 -156 319 -320 l300 -299 -52 -52 -53 -52 -315 314 c-174 173 -318 317
-321 320 -3 2 -148 -139 -324 -315 l-319 -319 -46 47 c-25 26 -45 50 -45 55 0
4 140 147 310 317 171 170 310 314 310 320 0 6 -139 150 -310 320 -170 170
-310 314 -310 320 0 10 80 95 91 95 3 0 147 -139 318 -310z m-589 230 l0 -70
-75 0 -75 0 0 70 0 70 75 0 75 0 0 -70z m1240 0 l0 -70 -325 0 -325 0 0 70 0
70 325 0 325 0 0 -70z m-1242 -862 l2 -548 -75 0 -75 0 0 543 c0 299 3 547 7
551 4 4 37 6 73 4 l65 -3 3 -547z m1240 -480 l3 -68 -324 0 -324 0 -2 70 -2
70 323 -2 323 -3 3 -67z m-1092 -239 c38 -23 64 -70 64 -116 -1 -54 -38 -113
-130 -202 -49 -48 -90 -91 -90 -94 0 -4 52 -7 115 -7 l115 0 0 -40 0 -40 -180
0 -180 0 0 33 c0 28 14 46 101 132 125 123 159 168 159 209 0 95 -131 117
-169 29 -13 -29 -19 -33 -53 -33 -32 0 -38 3 -38 20 0 48 61 119 115 133 42
12 134 -1 171 -24z m471 -5 c123 -93 118 -380 -9 -474 -26 -20 -45 -25 -94
-25 -78 0 -131 32 -165 102 -21 42 -24 62 -24 168 0 113 2 123 28 167 27 47
65 81 102 91 46 13 126 -1 162 -29z m434 26 c77 -22 121 -100 99 -179 -9 -35
-33 -66 -117 -153 l-106 -108 122 0 122 0 -3 -37 -3 -38 -177 -3 -178 -2 0 32
c1 28 19 51 125 162 130 134 147 163 125 215 -28 70 -136 66 -162 -6 -11 -30
-15 -33 -55 -33 -42 0 -43 1 -37 28 25 103 127 155 245 122z m507 -18 c38 -20
72 -72 72 -112 0 -35 -35 -89 -66 -100 -25 -10 -25 -30 0 -30 25 0 65 -41 75
-78 31 -110 -85 -207 -223 -187 -74 12 -142 69 -148 125 -3 22 1 25 34 28 33
3 40 0 50 -23 25 -55 121 -74 172 -34 20 15 26 29 26 57 0 20 -4 42 -8 48 -14
22 -51 34 -101 34 l-51 0 0 35 c0 33 2 35 34 35 46 0 94 18 106 40 16 29 12
75 -8 93 -45 41 -145 22 -158 -29 -5 -21 -12 -24 -51 -24 -41 0 -44 2 -38 23
20 63 62 102 130 120 34 10 116 -2 153 -21z"/>
<path d="M2911 2514 c-37 -31 -51 -77 -51 -173 0 -126 35 -194 100 -194 67 0
100 63 100 195 0 104 -22 166 -66 186 -36 17 -49 15 -83 -14z"/>
</g>
</svg>
