<svg width="56" height="56" viewBox="0 0 56 56" fill="none" xmlns="http://www.w3.org/2000/svg">
<path d="M0 56V0H56V56H0Z" fill="black"/>
<path d="M36.6147 41.9176C37.6911 43.666 38.8609 45.3414 41.3389 45.3414C43.4202 45.3414 44.5122 44.3069 44.5122 42.8758C44.5122 41.1631 43.3829 40.5549 41.0931 39.5578L39.8378 39.0227C36.2149 37.4858 33.8053 35.56 33.8053 31.4923C33.8053 27.7434 36.6753 24.8905 41.16 24.8905C44.3536 24.8905 46.648 25.9965 48.3031 28.8929L44.3924 31.3927C43.5322 29.8558 42.602 29.2507 41.16 29.2507C39.6884 29.2507 38.7567 30.1794 38.7567 31.3927C38.7567 32.8922 39.69 33.4989 41.8445 34.4276L43.0998 34.9627C47.3698 36.7811 49.7778 38.6385 49.7778 42.8136C49.7778 47.3122 46.2249 49.7778 41.4556 49.7778C36.7905 49.7778 34.1413 47.4367 32.6667 44.5387L36.6147 41.9176ZM18.592 42.0451C19.3791 43.4545 20.5753 44.5387 22.2958 44.5387C23.9416 44.5387 24.8889 43.8885 24.8889 41.3607V24.8889H30.0736V42.1571C30.0736 47.3947 27.0356 49.7778 22.5991 49.7778C18.5904 49.7778 15.6971 47.0618 14.518 44.5387L18.592 42.0451Z" fill="white"/>
</svg>
