<svg width="56" height="56" viewBox="0 0 56 56" fill="none" xmlns="http://www.w3.org/2000/svg">
<g clip-path="url(#clip0_0_42)">
<path d="M28 33.9259C30.9455 33.9259 33.3333 31.2728 33.3333 28C33.3333 24.7272 30.9455 22.0741 28 22.0741C25.0545 22.0741 22.6667 24.7272 22.6667 28C22.6667 31.2728 25.0545 33.9259 28 33.9259Z" fill="black"/>
<path d="M28 41.3334C42.7276 41.3334 54.6667 35.3638 54.6667 28C54.6667 20.6362 42.7276 14.6667 28 14.6667C13.2724 14.6667 1.33333 20.6362 1.33333 28C1.33333 35.3638 13.2724 41.3334 28 41.3334Z" stroke="black" stroke-width="3"/>
<path d="M17.6077 34.6667C24.9715 48.8383 35.5938 57.3419 41.3333 53.66C47.0728 49.9781 45.7561 35.505 38.3923 21.3334C31.0285 7.16172 20.4062 -1.34189 14.6667 2.34001C8.92716 6.02191 10.2439 20.4951 17.6077 34.6667Z" stroke="black" stroke-width="3"/>
<path d="M17.6077 21.3333C10.2439 35.505 8.92716 49.9781 14.6667 53.66C20.4062 57.3419 31.0285 48.8383 38.3923 34.6667C45.7561 20.495 47.0728 6.02188 41.3333 2.33999C35.5938 -1.34191 24.9715 7.1617 17.6077 21.3333Z" stroke="black" stroke-width="3"/>
</g>
<defs>
<clipPath id="clip0_0_42">
<rect width="56" height="56" fill="white"/>
</clipPath>
</defs>
</svg>
