<svg xmlns="http://www.w3.org/2000/svg" width="750" height="750" viewBox="0 0 750 750" version="1.1"><path d="M 312.432 258.069 C 306.520 264.043, 306.520 264.043, 343.760 301.243 C 364.242 321.704, 381 338.679, 381 338.967 C 381 339.255, 364.360 356.142, 344.021 376.495 C 307.043 413.500, 307.043 413.500, 312.771 419.642 C 318.500 425.783, 318.500 425.783, 356 388.411 C 393.500 351.039, 393.500 351.039, 431.106 388.444 C 468.713 425.848, 468.713 425.848, 474.356 420.145 C 477.460 417.008, 480 414.007, 480 413.476 C 480 412.945, 463.343 395.849, 442.985 375.485 C 405.969 338.459, 405.969 338.459, 442.985 301.556 C 463.343 281.259, 480 264.330, 480 263.936 C 480 263.542, 477.466 260.645, 474.368 257.497 C 468.736 251.774, 468.736 251.774, 431.407 289.093 C 410.876 309.618, 393.862 326.207, 393.597 325.956 C 393.332 325.705, 376.777 309.275, 356.808 289.445 C 336.839 269.614, 320.015 253.098, 319.422 252.742 C 318.829 252.386, 315.684 254.783, 312.432 258.069 M 270 262.500 C 270 271, 270 271, 278.500 271 C 287 271, 287 271, 287 262.500 C 287 254, 287 254, 278.500 254 C 270 254, 270 254, 270 262.500 M 356.518 255.250 C 356.288 255.938, 356.189 259.650, 356.300 263.500 C 356.500 270.500, 356.500 270.500, 394.250 270.762 C 432 271.024, 432 271.024, 432 262.512 C 432 254, 432 254, 394.469 254 C 365.334 254, 356.843 254.280, 356.518 255.250 M 270 363.500 C 270 428, 270 428, 278.500 428 C 287 428, 287 428, 287 363.500 C 287 299, 287 299, 278.500 299 C 270 299, 270 299, 270 363.500 M 356.693 411.750 C 356.048 412.889, 355.992 422.137, 356.612 425.250 C 357.159 428, 357.159 428, 394.579 428 C 432 428, 432 428, 432 419.500 C 432 411, 432 411, 394.559 411 C 373.966 411, 356.927 411.337, 356.693 411.750 M 282.655 445.406 C 277.675 447.250, 274.189 450.518, 271.890 455.500 C 268.862 462.060, 269.240 463, 274.902 463 C 279.401 463, 279.887 462.764, 280.805 460.129 C 282.497 455.275, 285.782 453, 291.100 453 C 295.145 453, 296.193 453.441, 298.411 456.077 C 301.460 459.700, 301.778 464.304, 299.243 468.134 C 298.285 469.583, 291.538 476.936, 284.250 484.473 C 271.844 497.304, 271 498.427, 271 502.089 C 271 506, 271 506, 292 506 C 313 506, 313 506, 313 501.500 C 313 497, 313 497, 299.500 497 C 292.075 497, 286 496.686, 286 496.303 C 286 495.919, 290.940 490.598, 296.979 484.478 C 309.555 471.731, 312.602 466.499, 311.546 459.461 C 310.174 450.309, 303.265 444.795, 292.520 444.274 C 289.047 444.105, 284.874 444.584, 282.655 445.406 M 339.500 445.326 C 333.732 447.583, 330.993 450.269, 327.759 456.838 C 324.627 463.199, 324.500 463.928, 324.500 475.500 C 324.500 487.126, 324.615 487.776, 327.833 494.311 C 332.898 504.601, 341.086 508.707, 352.330 506.598 C 357.637 505.602, 364.480 498.953, 367.129 492.218 C 370.096 484.676, 370.415 468.120, 367.742 460.468 C 363.225 447.540, 350.829 440.893, 339.500 445.326 M 393.655 445.459 C 388.704 447.224, 385.202 450.490, 382.890 455.500 C 379.863 462.058, 380.241 463, 385.892 463 C 390.319 463, 390.845 462.754, 391.432 460.414 C 392.631 455.640, 396.345 453, 401.866 453 C 406.173 453, 407.161 453.403, 409.411 456.077 C 412.460 459.700, 412.778 464.309, 410.243 468.124 C 409.285 469.567, 402.538 476.927, 395.250 484.479 C 382.845 497.335, 382 498.460, 382 502.126 C 382 506.041, 382 506.041, 402.750 505.770 C 423.500 505.500, 423.500 505.500, 423.807 501.250 C 424.115 497, 424.115 497, 410.557 497 C 403.101 497, 397 496.701, 397 496.335 C 397 495.969, 401.887 490.668, 407.860 484.555 C 419.227 472.923, 421.371 469.872, 422.534 463.672 C 423.373 459.197, 421.096 452.379, 417.696 449.184 C 412.626 444.422, 401.430 442.686, 393.655 445.459 M 449.143 445.493 C 443.788 447.164, 440.310 450.256, 437.890 455.500 C 435.121 461.500, 435.352 462, 440.892 462 C 445.291 462, 445.847 461.745, 446.418 459.469 C 447.858 453.734, 459.077 450.913, 464.253 454.984 C 468.967 458.692, 468.611 465.243, 463.514 468.583 C 462.097 469.511, 458.463 470.547, 455.439 470.885 C 452.414 471.223, 449.953 471.837, 449.970 472.250 C 449.986 472.663, 450 474.350, 450 476 C 450 478.973, 450.050 479, 455.550 479 C 464.417 479, 469 482.335, 469 488.788 C 469 492.268, 465.284 496.640, 461.525 497.583 C 455.023 499.215, 447.046 495.870, 445.450 490.842 C 444.667 488.375, 435 488.088, 435 490.532 C 435 496.058, 441.029 503.041, 447.890 505.461 C 466.638 512.076, 485.651 497.712, 478.394 482.417 C 476.709 478.867, 471.585 475.041, 468.382 474.941 C 466.540 474.884, 466.540 474.857, 468.384 473.691 C 473.137 470.686, 475.959 467.655, 477.032 464.402 C 481.427 451.086, 465.604 440.358, 449.143 445.493 M 341.199 455.029 C 336.402 459.498, 335.499 462.749, 335.514 475.500 C 335.526 486, 335.808 488.029, 337.774 491.729 C 340.345 496.571, 344.784 499.343, 348.481 498.416 C 352.370 497.439, 356.664 491.793, 357.900 486.030 C 361.544 469.040, 356.292 453, 347.085 453 C 344.742 453, 342.576 453.747, 341.199 455.029" stroke="none" fill="#afe44e" fill-rule="evenodd"/><path d="M 0 375.001 C 0 750.003, 0 750.003, 375.250 749.751 C 750.500 749.500, 750.500 749.500, 750.751 374.750 C 751.003 0, 751.003 0, 375.501 0 C 0 0, 0 0, 0 375.001 M 0.495 375.500 C 0.495 581.750, 0.610 666.274, 0.750 563.331 C 0.890 460.389, 0.890 291.639, 0.750 188.331 C 0.610 85.024, 0.495 169.250, 0.495 375.500 M 312.432 258.069 C 306.520 264.043, 306.520 264.043, 343.760 301.243 C 364.242 321.704, 381 338.679, 381 338.967 C 381 339.255, 364.360 356.142, 344.021 376.495 C 307.043 413.500, 307.043 413.500, 312.771 419.642 C 318.500 425.783, 318.500 425.783, 356 388.411 C 393.500 351.039, 393.500 351.039, 431.106 388.444 C 468.713 425.848, 468.713 425.848, 474.356 420.145 C 477.460 417.008, 480 414.007, 480 413.476 C 480 412.945, 463.343 395.849, 442.985 375.485 C 405.969 338.459, 405.969 338.459, 442.985 301.556 C 463.343 281.259, 480 264.330, 480 263.936 C 480 263.542, 477.466 260.645, 474.368 257.497 C 468.736 251.774, 468.736 251.774, 431.407 289.093 C 410.876 309.618, 393.862 326.207, 393.597 325.956 C 393.332 325.705, 376.777 309.275, 356.808 289.445 C 336.839 269.614, 320.015 253.098, 319.422 252.742 C 318.829 252.386, 315.684 254.783, 312.432 258.069 M 270 262.500 C 270 271, 270 271, 278.500 271 C 287 271, 287 271, 287 262.500 C 287 254, 287 254, 278.500 254 C 270 254, 270 254, 270 262.500 M 356.518 255.250 C 356.288 255.938, 356.189 259.650, 356.300 263.500 C 356.500 270.500, 356.500 270.500, 394.250 270.762 C 432 271.024, 432 271.024, 432 262.512 C 432 254, 432 254, 394.469 254 C 365.334 254, 356.843 254.280, 356.518 255.250 M 270 363.500 C 270 428, 270 428, 278.500 428 C 287 428, 287 428, 287 363.500 C 287 299, 287 299, 278.500 299 C 270 299, 270 299, 270 363.500 M 356.693 411.750 C 356.048 412.889, 355.992 422.137, 356.612 425.250 C 357.159 428, 357.159 428, 394.579 428 C 432 428, 432 428, 432 419.500 C 432 411, 432 411, 394.559 411 C 373.966 411, 356.927 411.337, 356.693 411.750 M 282.655 445.406 C 277.675 447.250, 274.189 450.518, 271.890 455.500 C 268.862 462.060, 269.240 463, 274.902 463 C 279.401 463, 279.887 462.764, 280.805 460.129 C 282.497 455.275, 285.782 453, 291.100 453 C 295.145 453, 296.193 453.441, 298.411 456.077 C 301.460 459.700, 301.778 464.304, 299.243 468.134 C 298.285 469.583, 291.538 476.936, 284.250 484.473 C 271.844 497.304, 271 498.427, 271 502.089 C 271 506, 271 506, 292 506 C 313 506, 313 506, 313 501.500 C 313 497, 313 497, 299.500 497 C 292.075 497, 286 496.686, 286 496.303 C 286 495.919, 290.940 490.598, 296.979 484.478 C 309.555 471.731, 312.602 466.499, 311.546 459.461 C 310.174 450.309, 303.265 444.795, 292.520 444.274 C 289.047 444.105, 284.874 444.584, 282.655 445.406 M 339.500 445.326 C 333.732 447.583, 330.993 450.269, 327.759 456.838 C 324.627 463.199, 324.500 463.928, 324.500 475.500 C 324.500 487.126, 324.615 487.776, 327.833 494.311 C 332.898 504.601, 341.086 508.707, 352.330 506.598 C 357.637 505.602, 364.480 498.953, 367.129 492.218 C 370.096 484.676, 370.415 468.120, 367.742 460.468 C 363.225 447.540, 350.829 440.893, 339.500 445.326 M 393.655 445.459 C 388.704 447.224, 385.202 450.490, 382.890 455.500 C 379.863 462.058, 380.241 463, 385.892 463 C 390.319 463, 390.845 462.754, 391.432 460.414 C 392.631 455.640, 396.345 453, 401.866 453 C 406.173 453, 407.161 453.403, 409.411 456.077 C 412.460 459.700, 412.778 464.309, 410.243 468.124 C 409.285 469.567, 402.538 476.927, 395.250 484.479 C 382.845 497.335, 382 498.460, 382 502.126 C 382 506.041, 382 506.041, 402.750 505.770 C 423.500 505.500, 423.500 505.500, 423.807 501.250 C 424.115 497, 424.115 497, 410.557 497 C 403.101 497, 397 496.701, 397 496.335 C 397 495.969, 401.887 490.668, 407.860 484.555 C 419.227 472.923, 421.371 469.872, 422.534 463.672 C 423.373 459.197, 421.096 452.379, 417.696 449.184 C 412.626 444.422, 401.430 442.686, 393.655 445.459 M 449.143 445.493 C 443.788 447.164, 440.310 450.256, 437.890 455.500 C 435.121 461.500, 435.352 462, 440.892 462 C 445.291 462, 445.847 461.745, 446.418 459.469 C 447.858 453.734, 459.077 450.913, 464.253 454.984 C 468.967 458.692, 468.611 465.243, 463.514 468.583 C 462.097 469.511, 458.463 470.547, 455.439 470.885 C 452.414 471.223, 449.953 471.837, 449.970 472.250 C 449.986 472.663, 450 474.350, 450 476 C 450 478.973, 450.050 479, 455.550 479 C 464.417 479, 469 482.335, 469 488.788 C 469 492.268, 465.284 496.640, 461.525 497.583 C 455.023 499.215, 447.046 495.870, 445.450 490.842 C 444.667 488.375, 435 488.088, 435 490.532 C 435 496.058, 441.029 503.041, 447.890 505.461 C 466.638 512.076, 485.651 497.712, 478.394 482.417 C 476.709 478.867, 471.585 475.041, 468.382 474.941 C 466.540 474.884, 466.540 474.857, 468.384 473.691 C 473.137 470.686, 475.959 467.655, 477.032 464.402 C 481.427 451.086, 465.604 440.358, 449.143 445.493 M 341.199 455.029 C 336.402 459.498, 335.499 462.749, 335.514 475.500 C 335.526 486, 335.808 488.029, 337.774 491.729 C 340.345 496.571, 344.784 499.343, 348.481 498.416 C 352.370 497.439, 356.664 491.793, 357.900 486.030 C 361.544 469.040, 356.292 453, 347.085 453 C 344.742 453, 342.576 453.747, 341.199 455.029" stroke="none" fill="#0b0c0b" fill-rule="evenodd"/></svg>